<svg width="42" height="24" viewBox="0 0 42 24" fill="none" xmlns="http://www.w3.org/2000/svg">
<rect x="15" y="3.75" width="12" height="16.5" fill="#FF5F00"/>
<path d="M16.9823 12.0023C16.9798 8.78093 18.4586 5.73726 20.9927 3.7483C16.6877 0.365039 10.5055 0.85784 6.79087 4.88038C3.07622 8.90292 3.07622 15.1047 6.79087 19.1272C10.5055 23.1498 16.6877 23.6426 20.9927 20.2593C18.4578 18.2697 16.9789 15.2248 16.9823 12.0023Z" fill="#EB001B"/>
<path d="M37.9875 12.0015C37.9874 16.0211 35.6922 19.6879 32.0766 21.4444C28.4611 23.201 24.16 22.739 21 20.2546C23.5327 18.2642 25.0115 15.2212 25.0115 12C25.0115 8.77877 23.5327 5.73583 21 3.7454C24.16 1.26103 28.4611 0.799014 32.0766 2.55558C35.6922 4.31214 37.9874 7.97889 37.9875 11.9985V12.0015Z" fill="#F79E1B"/>
<path fill-rule="evenodd" clip-rule="evenodd" d="M37.3635 17.6182V17.9345H37.3035V17.6182H37.1753V17.5527H37.4998V17.6182H37.3635ZM37.9932 17.5527V17.9345H37.925V17.6454L37.8187 17.8936H37.745L37.6387 17.6454V17.9345H37.5677V17.5527H37.6659L37.7805 17.8254L37.895 17.5527H37.9932Z" fill="#F79E1B"/>
</svg>
