<svg width="28" height="16" viewBox="0 0 28 16" fill="none" xmlns="http://www.w3.org/2000/svg">
<path d="M24.7428 0.0070236H4.23354C4.14925 0.0070236 4.06497 0.0070236 3.98068 0.0070236C3.91045 0.0070236 3.84021 0.0070236 3.76295 0.0070236C3.60843 0.0140473 3.44688 0.0210709 3.29236 0.0491657C3.13784 0.0772605 2.98332 0.126426 2.84284 0.196663C2.5619 0.337138 2.33011 0.56892 2.18964 0.849868C2.1194 0.990342 2.07024 1.13784 2.04214 1.29938C2.01405 1.45391 2.00702 1.61545 2 1.76997C2 1.84021 2 1.91045 2 1.98771C2 2.07199 2 2.15628 2 2.24056V13.7594C2 13.8437 2 13.928 2 14.0193C2 14.0896 2 14.1598 2 14.2371C2.00702 14.3916 2.01405 14.5531 2.04214 14.7076C2.07024 14.8622 2.1194 15.0167 2.18964 15.1572C2.25988 15.2976 2.35118 15.4241 2.46356 15.5364C2.57594 15.6488 2.70237 15.7401 2.84284 15.8104C2.98332 15.8806 3.13082 15.9298 3.29236 15.9579C3.44688 15.986 3.60843 15.993 3.76295 16C3.83319 16 3.90342 16 3.98068 16C4.06497 16 4.14925 16 4.23354 16H24.7428C24.827 16 24.9113 16 24.9956 16C25.0658 16 25.1361 16 25.2133 16C25.3679 15.993 25.5294 15.986 25.6839 15.9579C25.8385 15.9298 25.993 15.8806 26.1334 15.8104C26.4144 15.6629 26.6462 15.4381 26.7867 15.1572C26.8569 15.0167 26.9061 14.8692 26.9342 14.7076C26.9622 14.5531 26.9693 14.3916 26.9763 14.2371C26.9763 14.1668 26.9763 14.0966 26.9763 14.0193C26.9763 13.935 26.9763 13.8507 26.9763 13.7594V2.24056C26.9763 2.15628 26.9763 2.07199 26.9763 1.98069C26.9763 1.91045 26.9763 1.84021 26.9763 1.76295C26.9693 1.60843 26.9622 1.44688 26.9342 1.29236C26.9061 1.13784 26.8569 0.983319 26.7867 0.842845C26.6462 0.561896 26.4144 0.330114 26.1334 0.18964C25.993 0.119403 25.8455 0.0702369 25.6839 0.0421421C25.5294 0.0140473 25.3679 0.0070237 25.2133 0C25.1431 0 25.0729 0 24.9956 0C24.9113 0.0070237 24.827 0.0070236 24.7428 0.0070236Z" fill="#010202"/>
<path d="M24.7426 0.540878H24.9955C25.0657 0.540878 25.129 0.540878 25.1992 0.540878C25.3186 0.540878 25.4591 0.547902 25.5925 0.575997C25.7049 0.597068 25.8032 0.625163 25.8945 0.674329C26.0772 0.765637 26.2246 0.913135 26.316 1.09575C26.3651 1.18706 26.3932 1.27837 26.4143 1.39777C26.4354 1.5242 26.4424 1.66467 26.4494 1.78407C26.4494 1.85431 26.4494 1.91752 26.4494 1.98776C26.4494 2.07205 26.4494 2.15633 26.4494 2.24062V13.7595C26.4494 13.8438 26.4494 13.9281 26.4494 14.0123C26.4494 14.0826 26.4494 14.1458 26.4494 14.216C26.4494 14.3354 26.4424 14.4759 26.4143 14.6094C26.4002 14.7147 26.3651 14.813 26.316 14.9044C26.2246 15.087 26.0772 15.2345 25.8945 15.3258C25.8032 15.3749 25.7119 15.403 25.5995 15.4241C25.4661 15.4452 25.3186 15.4522 25.2132 15.4592C25.143 15.4592 25.0728 15.4592 25.0025 15.4592C24.9182 15.4592 24.834 15.4592 24.7497 15.4592H4.24045C4.15617 15.4592 4.07188 15.4592 3.9876 15.4592C3.91736 15.4592 3.85415 15.4592 3.78391 15.4592C3.67153 15.4592 3.52403 15.4522 3.39058 15.4241C3.28523 15.4101 3.1869 15.3749 3.08856 15.3258C2.99726 15.2766 2.91297 15.2204 2.84274 15.1502C2.7725 15.0799 2.70928 14.9957 2.66714 14.9044C2.61798 14.813 2.58988 14.7077 2.56881 14.6023C2.54774 14.4689 2.54072 14.3354 2.53369 14.216C2.53369 14.1458 2.53369 14.0826 2.53369 14.0123V13.8087V2.19145V1.99479C2.53369 1.92455 2.53369 1.86133 2.53369 1.7911C2.53369 1.67169 2.54072 1.53122 2.56881 1.39777C2.58286 1.29242 2.61798 1.19408 2.66714 1.09575C2.71631 1.00444 2.7725 0.920158 2.84274 0.849921C2.91297 0.779684 2.99726 0.716471 3.08856 0.674329C3.17987 0.625163 3.28523 0.597068 3.39058 0.575997C3.52403 0.554926 3.66451 0.547902 3.78391 0.540878C3.85415 0.540878 3.91736 0.540878 3.9876 0.540878H4.24045H24.7426" fill="white"/>
<path d="M8.56694 5.40828C8.77766 5.14138 8.92515 4.79019 8.88301 4.42496C8.57397 4.439 8.19469 4.62865 7.97695 4.89555C7.78029 5.1203 7.6047 5.49256 7.65386 5.84375C7.99802 5.87184 8.34921 5.66815 8.56694 5.40828Z" fill="#010202"/>
<path d="M8.8761 5.90706C8.37039 5.87896 7.94194 6.19503 7.70314 6.19503C7.46433 6.19503 7.09208 5.9211 6.69173 5.92813C6.17197 5.93515 5.68734 6.23015 5.42746 6.70074C4.88663 7.63489 5.28698 9.02558 5.81376 9.78414C6.07364 10.1634 6.38268 10.5778 6.78303 10.5638C7.16934 10.5497 7.31683 10.3179 7.78742 10.3179C8.25801 10.3179 8.39146 10.5638 8.79884 10.5567C9.22026 10.5497 9.48716 10.1775 9.74001 9.80521C10.035 9.37677 10.1544 8.96237 10.1614 8.93427C10.1544 8.92725 9.34669 8.61821 9.33966 7.69108C9.33264 6.91145 9.9718 6.54621 10.0069 6.51812C9.64168 5.98432 9.07276 5.9211 8.8761 5.90706Z" fill="#010202"/>
<path d="M13.919 4.85339C15.0147 4.85339 15.7803 5.61195 15.7803 6.71468C15.7803 7.82442 15.0007 8.58298 13.8909 8.58298H12.6758V10.5145H11.7979V4.85339C11.7979 4.85339 13.919 4.85339 13.919 4.85339ZM12.6758 7.84549H13.6872C14.4528 7.84549 14.8883 7.43109 14.8883 6.7217C14.8883 6.00528 14.4528 5.59791 13.6943 5.59791H12.6828C12.6758 5.59791 12.6758 7.84549 12.6758 7.84549Z" fill="#010202"/>
<path d="M15.998 9.34161C15.998 8.61817 16.5529 8.19675 17.5714 8.14056L18.6671 8.07735V7.76128C18.6671 7.30474 18.365 7.05189 17.8242 7.05189C17.3817 7.05189 17.0586 7.27665 16.9954 7.62783H16.2017C16.2228 6.89737 16.9182 6.36356 17.8523 6.36356C18.8567 6.36356 19.5099 6.89034 19.5099 7.70509V10.5216H18.6951V9.8403H18.6741C18.4423 10.2828 17.9296 10.5637 17.3817 10.5637C16.567 10.5567 15.998 10.0721 15.998 9.34161ZM18.6671 8.97638V8.66031L17.6908 8.72353C17.1429 8.75865 16.8549 8.96233 16.8549 9.32054C16.8549 9.6647 17.1499 9.88946 17.6205 9.88946C18.2175 9.88946 18.6671 9.51018 18.6671 8.97638Z" fill="#010202"/>
<path d="M20.2543 12.0317V11.3504C20.3105 11.3574 20.4439 11.3644 20.5142 11.3644C20.9005 11.3644 21.1252 11.2029 21.2587 10.7744L21.336 10.5216L19.8469 6.40569H20.767L21.7995 9.74898H21.8206L22.8531 6.40569H23.7521L22.2069 10.7323C21.8557 11.7226 21.4483 12.0528 20.5914 12.0528C20.5282 12.0528 20.3175 12.0457 20.2543 12.0317Z" fill="#010202"/>
</svg>
