<svg width="80" height="80" viewBox="0 0 80 80" fill="none" xmlns="http://www.w3.org/2000/svg">
<path fill-rule="evenodd" clip-rule="evenodd" d="M0 40C0 17.92 17.92 0 40 0C62.08 0 80 17.92 80 40C80 62.08 62.08 80 40 80C17.92 80 0 62.08 0 40ZM55.8651 26.2576C55.455 25.8876 54.8227 25.92 54.4527 26.3301L33.027 50.074L24.7108 41.6719L24.617 41.5882C24.2263 41.2811 23.6589 41.3059 23.2966 41.6645C22.904 42.053 22.9007 42.6862 23.2892 43.0787L33.0941 52.9855L55.9376 27.6699L56.0158 27.5716C56.3003 27.1642 56.2436 26.5991 55.8651 26.2576Z" fill="#4BAF50"/>
</svg>
