<svg width="56" height="44" viewBox="0 0 56 44" fill="none" xmlns="http://www.w3.org/2000/svg">
<g clip-path="url(#clip0_75_64307)">
<rect x="-1" y="12" width="57" height="20" fill="white"/>
<path d="M28.8966 18.3604C28.8966 20.062 27.8578 21.0414 26.0276 21.0414H23.6236V15.6794H26.0375C27.8578 15.6794 28.8966 16.6489 28.8966 18.3604ZM33.5958 24.5534C33.5958 25.3745 34.3081 25.9087 35.426 25.9087C36.8506 25.9087 37.919 25.0085 37.919 23.7422V22.9804L35.5942 23.1288C34.2784 23.2178 33.5958 23.7026 33.5958 24.5534ZM55.9836 4.56956V39.3929C55.9836 42.0145 53.8566 44.1415 51.235 44.1415H3.74863C1.12699 44.1415 -1 42.0145 -1 39.3929V4.56956C-1 1.94792 1.12699 -0.179077 3.74863 -0.179077H51.235C53.8566 -0.179077 55.9836 1.94792 55.9836 4.56956ZM11.6432 16.2631C12.4742 16.3323 13.3053 15.8476 13.8296 15.2342C14.344 14.601 14.6804 13.7502 14.5913 12.8896C13.8593 12.9192 12.9491 13.3743 12.4248 14.0075C11.9499 14.5516 11.5443 15.4321 11.6432 16.2631ZM17.6384 23.6333C17.6186 23.6136 15.6994 22.8815 15.6796 20.6654C15.6598 18.8155 17.1932 17.9251 17.2625 17.8756C16.3919 16.5895 15.0464 16.451 14.5815 16.4214C13.3745 16.3521 12.3456 17.104 11.7718 17.104C11.1882 17.104 10.3176 16.451 9.36785 16.4708C8.13123 16.4906 6.97375 17.193 6.35049 18.3109C5.05451 20.5467 6.01413 23.851 7.27054 25.6713C7.8839 26.5716 8.62588 27.5609 9.59539 27.5213C10.5154 27.4817 10.8815 26.9277 11.9895 26.9277C13.1074 26.9277 13.424 27.5213 14.3935 27.5114C15.4026 27.4916 16.0258 26.6111 16.6491 25.7109C17.3317 24.682 17.6186 23.6927 17.6384 23.6333ZM31.0335 18.3505C31.0335 15.719 29.2033 13.9184 26.5915 13.9184H21.5263V27.4125H23.6236V22.8023H26.5223C29.1736 22.8023 31.0335 20.982 31.0335 18.3505ZM39.9372 20.6951C39.9372 18.7462 38.3741 17.4898 35.98 17.4898C33.7541 17.4898 32.1118 18.766 32.0525 20.5072H33.942C34.1003 19.6761 34.872 19.132 35.9206 19.132C37.2067 19.132 37.919 19.7256 37.919 20.8336V21.5756L35.3073 21.7339C32.8736 21.8823 31.5578 22.8815 31.5578 24.6127C31.5578 26.3638 32.9132 27.5213 34.8621 27.5213C36.1778 27.5213 37.3947 26.8585 37.9487 25.7999H37.9883V27.4224H39.9273V20.6951H39.9372ZM50.0478 17.6184H47.9208L45.4575 25.5922H45.4179L42.9545 17.6184H40.7484L44.3 27.4421L44.112 28.0357C43.7954 29.0448 43.2711 29.4405 42.3412 29.4405C42.173 29.4405 41.8564 29.4207 41.7278 29.4108V31.0333C41.8465 31.0729 42.3709 31.0828 42.5291 31.0828C44.577 31.0828 45.5366 30.3012 46.3775 27.9368L50.0478 17.6184Z" fill="black"/>
</g>
<defs>
<clipPath id="clip0_75_64307">
<rect width="56" height="44" fill="white"/>
</clipPath>
</defs>
</svg>
