<svg width="42" height="24" viewBox="0 0 42 24" fill="none" xmlns="http://www.w3.org/2000/svg">
<path fill-rule="evenodd" clip-rule="evenodd" d="M4.5 1.50191L37.2609 1.5V22.3036L4.50478 22.3043L4.5 1.50191Z" fill="#FFFFFE"/>
<path fill-rule="evenodd" clip-rule="evenodd" d="M37.2617 13.2093C37.2617 13.2093 28.3046 19.4778 11.917 22.3036H37.2617V13.2093Z" fill="#E5782B"/>
<path fill-rule="evenodd" clip-rule="evenodd" d="M37.2613 1.73781C37.2613 1.97086 37.2613 22.0277 37.2613 22.2619C37.0249 22.2619 4.97501 22.2619 4.73813 22.2619C4.73813 22.0289 4.73694 1.97277 4.73694 1.73876C4.97454 1.73876 37.0222 1.73781 37.2613 1.73781ZM37.3804 1.5L4.5 1.50309V22.5H37.5L37.4978 1.5H37.3804Z" fill="#1B1A19"/>
<path fill-rule="evenodd" clip-rule="evenodd" d="M8.47149 11.5399C8.1788 11.8041 7.79882 11.9194 7.19741 11.9194H6.94775V8.76334H7.19741C7.79882 8.76334 8.16397 8.87094 8.47149 9.14929C8.79336 9.43601 8.98682 9.88031 8.98682 10.3373C8.98682 10.7955 8.79336 11.2534 8.47149 11.5399ZM7.38372 7.95483H6.01709V12.7272H7.37655C8.0992 12.7272 8.62122 12.5567 9.07939 12.1762C9.62366 11.7257 9.94576 11.0466 9.94576 10.3442C9.94576 8.93599 8.89359 7.95483 7.38372 7.95483Z" fill="#1B1A19"/>
<path fill-rule="evenodd" clip-rule="evenodd" d="M10.374 12.7272H11.305V7.95483H10.374V12.7272Z" fill="#1B1A19"/>
<path fill-rule="evenodd" clip-rule="evenodd" d="M13.581 9.78612C13.0224 9.57951 12.8586 9.44321 12.8586 9.18519C12.8586 8.88484 13.1506 8.65623 13.5518 8.65623C13.8309 8.65623 14.06 8.77101 14.3027 9.04266L14.7896 8.4049C14.3893 8.05482 13.9105 7.87595 13.3873 7.87595C12.5427 7.87595 11.8987 8.46229 11.8987 9.24329C11.8987 9.9009 12.1988 10.2374 13.0728 10.5521C13.4375 10.6807 13.6228 10.7663 13.7166 10.8239C13.9026 10.9454 13.9956 11.1174 13.9956 11.3178C13.9956 11.7044 13.6881 11.9909 13.2728 11.9909C12.8289 11.9909 12.4712 11.769 12.2569 11.3543L11.6553 11.9335C12.0843 12.5631 12.5996 12.842 13.3079 12.842C14.2749 12.842 14.9536 12.1987 14.9536 11.2749C14.9536 10.5167 14.6401 10.1735 13.581 9.78612Z" fill="#1B1A19"/>
<path fill-rule="evenodd" clip-rule="evenodd" d="M15.2476 10.3442C15.2476 11.747 16.349 12.8348 17.7666 12.8348C18.1673 12.8348 18.5103 12.7559 18.9335 12.5567V11.461C18.5614 11.8333 18.2317 11.9835 17.8098 11.9835C16.8722 11.9835 16.2069 11.3039 16.2069 10.3373C16.2069 9.42118 16.8933 8.69829 17.7666 8.69829C18.2104 8.69829 18.5466 8.85659 18.9335 9.23538V8.13992C18.5251 7.93283 18.1891 7.84698 17.7886 7.84698C16.3782 7.84698 15.2476 8.95655 15.2476 10.3442Z" fill="#1B1A19"/>
<path fill-rule="evenodd" clip-rule="evenodd" d="M26.3146 11.1604L25.0419 7.95483H24.0249L26.0503 12.8496H26.5511L28.6126 7.95483H27.604L26.3146 11.1604Z" fill="#1B1A19"/>
<path fill-rule="evenodd" clip-rule="evenodd" d="M29.0339 12.7272H31.6739V11.9194H29.9642V10.6309H31.611V9.82268H29.9642V8.76333H31.6739V7.95483H29.0339V12.7272Z" fill="#1B1A19"/>
<path fill-rule="evenodd" clip-rule="evenodd" d="M33.492 10.152H33.2201V8.70667H33.5066C34.0865 8.70667 34.4014 8.94938 34.4014 9.41401C34.4014 9.89371 34.0865 10.152 33.492 10.152ZM35.3595 9.36379C35.3595 8.4704 34.7442 7.95483 33.6708 7.95483H32.2903V12.7272H33.2203V10.8101H33.3415L34.6302 12.7272H35.7749L34.2724 10.7166C34.9736 10.574 35.3595 10.0946 35.3595 9.36379Z" fill="#1B1A19"/>
<path fill-rule="evenodd" clip-rule="evenodd" d="M36.2018 9.2143C35.8709 9.2143 35.5997 8.94059 35.5997 8.59919C35.5997 8.25632 35.8674 7.9831 36.2018 7.9831C36.5312 7.9831 36.7999 8.2627 36.7999 8.59919C36.7999 8.93765 36.5312 9.2143 36.2018 9.2143ZM35.45 8.59772C35.45 9.01465 35.7878 9.34821 36.2046 9.34821C36.6146 9.34821 36.95 9.01073 36.95 8.59772C36.95 8.18715 36.6146 7.84821 36.2046 7.84821C35.7838 7.84821 35.45 8.18127 35.45 8.59772Z" fill="#1B1A19"/>
<path fill-rule="evenodd" clip-rule="evenodd" d="M36.4913 8.43485C36.4913 8.26317 36.3718 8.16948 36.1633 8.16948H35.8848V9.02985H36.0917V8.69629L36.3337 9.02985H36.5866L36.3016 8.6752C36.4236 8.64234 36.4913 8.55453 36.4913 8.43485Z" fill="#1B1A19"/>
<path fill-rule="evenodd" clip-rule="evenodd" d="M36.1261 8.55258H36.0916V8.32743H36.1286C36.2308 8.32743 36.2842 8.36373 36.2842 8.4378C36.2842 8.51432 36.2299 8.55258 36.1261 8.55258Z" fill="white"/>
<circle cx="21.7957" cy="10.3395" r="2.57065" fill="url(#paint0_radial_109_65026)"/>
<defs>
<radialGradient id="paint0_radial_109_65026" cx="0" cy="0" r="1" gradientUnits="userSpaceOnUse" gradientTransform="translate(23.6612 13.0277) rotate(-125.728) scale(5.88027 3.886)">
<stop stop-color="#E6983A"/>
<stop offset="0.48201" stop-color="#E1752D"/>
<stop offset="0.771869" stop-color="#CD4B1A"/>
<stop offset="0.897276" stop-color="#B73F1F"/>
<stop offset="1" stop-color="#6F2114"/>
<stop offset="1" stop-color="#340A04"/>
</radialGradient>
</defs>
</svg>
