<svg width="81" height="80" viewBox="0 0 81 80" fill="none" xmlns="http://www.w3.org/2000/svg">
<g id="Illustration / Error / Circular / On Light / Large">
<path id="Combined Shape" fill-rule="evenodd" clip-rule="evenodd" d="M40.5 0C62.5914 0 80.5 17.9086 80.5 40C80.5 62.0914 62.5914 80 40.5 80C18.4086 80 0.5 62.0914 0.5 40C0.5 17.9086 18.4086 0 40.5 0ZM40.5 58C39.3954 58 38.5 58.8954 38.5 60C38.5 61.1046 39.3954 62 40.5 62C41.6046 62 42.5 61.1046 42.5 60C42.5 58.8954 41.6046 58 40.5 58ZM40.5 18C39.9477 18 39.5 18.4477 39.5 19V52C39.5 52.5523 39.9477 53 40.5 53C41.0523 53 41.5 52.5523 41.5 52V19C41.5 18.4477 41.0523 18 40.5 18Z" fill="#B00020"/>
</g>
</svg>
