<svg width="42" height="24" viewBox="0 0 42 24" fill="none" xmlns="http://www.w3.org/2000/svg">
<path fill-rule="evenodd" clip-rule="evenodd" d="M20.8108 6.22282L18.2045 18.4047H15.0535L17.66 6.22282H20.8108ZM34.0693 14.0887L35.7285 9.51416L36.6832 14.0887H34.0693ZM37.5851 18.4047H40.5L37.9565 6.22282H35.2657C34.6614 6.22282 34.1512 6.57454 33.9244 7.11657L29.1965 18.4047H32.5054L33.1626 16.5856H37.2056L37.5851 18.4047ZM29.3607 14.4274C29.374 11.2121 24.914 11.035 24.945 9.59865C24.9542 9.16153 25.3708 8.69696 26.2813 8.57797C26.7336 8.51893 27.9771 8.47361 29.389 9.12343L29.9419 6.54022C29.1837 6.26469 28.2077 6 26.9941 6C23.8796 6 21.6869 7.65606 21.6685 10.0273C21.6488 11.7808 23.2333 12.7591 24.4277 13.3423C25.6551 13.9396 26.0677 14.322 26.0625 14.8559C26.0543 15.6738 25.083 16.034 24.1769 16.0483C22.5922 16.0734 21.6728 15.6205 20.9397 15.2789L20.3687 17.9481C21.105 18.2864 22.4638 18.5802 23.8738 18.5954C27.1839 18.5954 29.3498 16.9595 29.3607 14.4274ZM16.3077 6.22282L11.202 18.4047H7.87036L5.35811 8.68271C5.20536 8.0838 5.07283 7.86479 4.60863 7.61255C3.8521 7.20161 2.60085 6.81594 1.5 6.57671L1.57529 6.22282H6.93725C7.62065 6.22282 8.23544 6.67764 8.39054 7.46468L9.71762 14.5145L12.9971 6.22282H16.3077Z" fill="#182E66"/>
</svg>
