<svg width="42" height="24" viewBox="0 0 42 24" fill="none" xmlns="http://www.w3.org/2000/svg">
<rect x="15" y="3.75" width="12" height="16.5" fill="#7673C0"/>
<path d="M16.9823 12.0023C16.9798 8.78092 18.4586 5.73724 20.9927 3.74829C16.6877 0.365023 10.5055 0.857825 6.79087 4.88037C3.07622 8.90291 3.07622 15.1047 6.79087 19.1272C10.5055 23.1497 16.6877 23.6425 20.9927 20.2593C18.4578 18.2697 16.9789 15.2248 16.9823 12.0023Z" fill="#EB001B"/>
<path d="M37.9875 12.0015C37.9874 16.0211 35.6922 19.6879 32.0766 21.4444C28.4611 23.201 24.16 22.739 21 20.2546C23.5327 18.2642 25.0115 15.2212 25.0115 12C25.0115 8.77877 23.5327 5.73583 21 3.7454C24.16 1.26103 28.4611 0.799014 32.0766 2.55558C35.6922 4.31214 37.9874 7.97889 37.9875 11.9985V12.0015Z" fill="#00A1DF"/>
<path fill-rule="evenodd" clip-rule="evenodd" d="M37.3634 17.6182V17.9346H37.3034V17.6182H37.1752V17.5527H37.4997V17.6182H37.3634ZM37.9931 17.5528V17.9346H37.9249V17.6455L37.8185 17.8937H37.7449L37.6385 17.6455V17.9346H37.5676V17.5528H37.6658L37.7804 17.8255L37.8949 17.5528H37.9931Z" fill="#00A1DF"/>
</svg>
