<svg width="20" height="20" viewBox="0 0 20 20" fill="none" xmlns="http://www.w3.org/2000/svg">
<path fill-rule="evenodd" clip-rule="evenodd" d="M10 1.66666C5.4 1.66666 1.66666 5.39999 1.66666 9.99999C1.66666 14.6 5.4 18.3333 10 18.3333C14.6 18.3333 18.3333 14.6 18.3333 9.99999C18.3333 5.39999 14.6 1.66666 10 1.66666ZM10.8333 14.1667H9.16666V12.5H10.8333V14.1667ZM10.8333 10.8333H9.16666V5.83332H10.8333V10.8333Z" fill="#ED5645"/>
<mask id="mask0_33_39961" style="mask-type:alpha" maskUnits="userSpaceOnUse" x="1" y="1" width="18" height="18">
<path fill-rule="evenodd" clip-rule="evenodd" d="M10 1.66666C5.4 1.66666 1.66666 5.39999 1.66666 9.99999C1.66666 14.6 5.4 18.3333 10 18.3333C14.6 18.3333 18.3333 14.6 18.3333 9.99999C18.3333 5.39999 14.6 1.66666 10 1.66666ZM10.8333 14.1667H9.16666V12.5H10.8333V14.1667ZM10.8333 10.8333H9.16666V5.83332H10.8333V10.8333Z" fill="white"/>
</mask>
<g mask="url(#mask0_33_39961)">
</g>
</svg>
