<svg width="36" height="17" viewBox="0 0 36 17" fill="none" xmlns="http://www.w3.org/2000/svg">
<path fill-rule="evenodd" clip-rule="evenodd" d="M23.8155 0.799988C24.4589 0.799988 24.9804 1.31168 24.9804 1.94285C24.9804 2.57402 24.4589 3.08571 23.8155 3.08571C23.1721 3.08571 22.6505 2.57402 22.6505 1.94285C22.6505 1.31168 23.1721 0.799988 23.8155 0.799988ZM16.5887 6.5844C15.215 6.5844 14.1014 7.67539 14.1014 9.02117C14.1014 10.3669 15.215 11.4578 16.5887 11.4578C17.9624 11.4578 19.076 10.3669 19.076 9.02117C19.076 7.67539 17.9624 6.5844 16.5887 6.5844ZM31.0559 6.5844C29.6822 6.5844 28.5686 7.67539 28.5686 9.02117C28.5686 10.3669 29.6822 11.4578 31.0559 11.4578C32.4296 11.4578 33.5432 10.3669 33.5432 9.02117C33.5432 7.67539 32.4296 6.5844 31.0559 6.5844ZM5.69414 6.59456C4.32044 6.59456 3.20685 7.68691 3.20685 9.03436C3.20685 10.3819 4.32044 11.4742 5.69414 11.4742C7.06785 11.4742 8.18143 10.3819 8.18143 9.03436C8.18143 7.68691 7.06785 6.59456 5.69414 6.59456ZM16.5887 4.3C19.2502 4.3 21.4078 6.41371 21.4078 9.02117C21.4078 11.6285 19.2502 13.7423 16.5887 13.7423C13.9272 13.7423 11.7696 11.6285 11.7696 9.02117C11.7696 6.41371 13.9272 4.3 16.5887 4.3ZM31.0559 4.3C33.7174 4.3 35.875 6.41371 35.875 9.02117C35.875 11.6285 33.7174 13.7423 31.0559 13.7423C28.3944 13.7423 26.2368 11.6285 26.2368 9.02117C26.2368 6.41371 28.3944 4.3 31.0559 4.3ZM10.5133 0.799988V9.03436C10.5133 11.6451 8.35567 13.7615 5.69414 13.7615C3.03262 13.7615 0.875 11.6451 0.875 9.03436C0.875 6.42364 3.03262 4.30726 5.69414 4.30726C6.60423 4.30726 7.45536 4.5547 8.18152 4.98476L8.18143 0.799988H10.5133ZM24.9804 4.30475V12.2285H24.9802L24.98 12.2618C24.9501 14.4389 23.4444 16.2632 21.4079 16.8L21.4079 14.3258C22.1507 13.9006 22.6505 13.1059 22.6505 12.1958V4.30475H24.9804Z" fill="#262626"/>
</svg>
