<svg width="42" height="24" viewBox="0 0 42 24" fill="none" xmlns="http://www.w3.org/2000/svg">
<path fill-rule="evenodd" clip-rule="evenodd" d="M6.89915 24C5.57729 23.9978 4.50055 22.9599 4.5 21.6692V2.33103C4.50055 1.0401 5.57729 0.0021765 6.89915 0H35.1008C36.4227 0.0021765 37.4995 1.0401 37.5 2.33103V21.6692C37.4995 22.9599 36.4227 23.9978 35.1008 24H6.89915Z" fill="white"/>
<path fill-rule="evenodd" clip-rule="evenodd" d="M6.89915 24C5.57729 23.9978 4.50055 22.9599 4.5 21.6692V2.33103C4.50055 1.0401 5.57729 0.0021765 6.89915 0H35.1008C36.4227 0.0021765 37.4995 1.0401 37.5 2.33103V21.6692C37.4995 22.9599 36.4227 23.9978 35.1008 24H6.89915ZM4.87463 2.33104V21.6692C4.87683 22.7477 5.77754 23.6278 6.89897 23.6278H35.1007C36.2218 23.6278 37.1231 22.7477 37.125 21.6692V2.33104C37.1231 1.25231 36.2218 0.372185 35.1007 0.372185H6.89897C5.77754 0.372185 4.87683 1.25231 4.87463 2.33104Z" fill="#174A77"/>
<path fill-rule="evenodd" clip-rule="evenodd" d="M7.69422 14.5567C7.69422 14.0243 7.41455 14.0593 7.14697 14.0536V13.8999C7.37907 13.9111 7.61695 13.9111 7.8496 13.9111C8.09985 13.9111 8.4392 13.8999 8.8803 13.8999C10.4225 13.8999 11.2629 14.9237 11.2629 15.9726C11.2629 16.5591 10.9172 18.0335 8.80852 18.0335C8.5052 18.0335 8.2247 18.022 7.94502 18.022C7.67717 18.022 7.41455 18.0275 7.14697 18.0335V17.8798C7.50392 17.8437 7.67717 17.8322 7.69422 17.4295V14.5567ZM8.2782 17.3343C8.2782 17.7904 8.606 17.8437 8.8975 17.8437C10.1848 17.8437 10.6069 16.8785 10.6069 15.9964C10.6069 14.8887 9.89245 14.0894 8.74295 14.0894C8.4982 14.0894 8.38545 14.1066 8.2782 14.1132V17.3343Z" fill="#1B1A19"/>
<path fill-rule="evenodd" clip-rule="evenodd" d="M11.4712 17.8798H11.6039C11.8004 17.8798 11.9409 17.8798 11.9409 17.6837V16.0789C11.9409 15.8184 11.8357 15.7828 11.5761 15.6647V15.5698C11.9056 15.4864 12.2982 15.3746 12.3261 15.3568C12.3753 15.333 12.417 15.3267 12.4526 15.3267C12.4869 15.3267 12.5012 15.3623 12.5012 15.4101V17.6837C12.5012 17.8798 12.6559 17.8798 12.8524 17.8798H12.9712V18.0335C12.7326 18.0335 12.4869 18.022 12.2354 18.022C11.983 18.022 11.7305 18.0275 11.4712 18.0335V17.8798ZM12.2211 14.4151C12.0386 14.4151 11.8777 14.2729 11.8777 14.1189C11.8777 13.9707 12.0463 13.8343 12.2211 13.8343C12.403 13.8343 12.5649 13.959 12.5649 14.1189C12.5649 14.2792 12.4102 14.4151 12.2211 14.4151Z" fill="#1B1A19"/>
<path fill-rule="evenodd" clip-rule="evenodd" d="M13.3119 16.1145C13.3119 15.8957 13.2462 15.8367 12.9668 15.724V15.6116C13.2225 15.5285 13.4665 15.4514 13.7525 15.3267C13.7706 15.3267 13.7879 15.3387 13.7879 15.3858V15.771C14.1278 15.5285 14.4199 15.3267 14.8195 15.3267C15.3252 15.3267 15.5037 15.6939 15.5037 16.156V17.6837C15.5037 17.8798 15.6351 17.8798 15.8018 17.8798H15.9093V18.0335C15.7 18.0335 15.4918 18.022 15.2776 18.022C15.0631 18.022 14.8486 18.0274 14.6341 18.0335V17.8798H14.7414C14.9083 17.8798 15.0271 17.8798 15.0271 17.6837V16.1503C15.0271 15.8123 14.8195 15.6466 14.4796 15.6466C14.2887 15.6466 13.9851 15.8006 13.7879 15.9313V17.6837C13.7879 17.8798 13.9197 17.8798 14.0866 17.8798H14.1933V18.0335C13.9851 18.0335 13.7767 18.022 13.5616 18.022C13.3479 18.022 13.1332 18.0274 12.9189 18.0335V17.8798H13.0265C13.1928 17.8798 13.3119 17.8798 13.3119 17.6837V16.1145Z" fill="#1B1A19"/>
<path fill-rule="evenodd" clip-rule="evenodd" d="M16.3618 16.3991C16.3497 16.4524 16.3497 16.541 16.3618 16.7426C16.3968 17.305 16.7609 17.7669 17.2369 17.7669C17.565 17.7669 17.8213 17.5891 18.0413 17.3704L18.1243 17.4532C17.8504 17.8144 17.5111 18.1226 17.0229 18.1226C16.0758 18.1226 15.8853 17.2099 15.8853 16.8314C15.8853 15.6704 16.6712 15.3267 17.0878 15.3267C17.5707 15.3267 18.0891 15.6286 18.0949 16.2567C18.0949 16.2928 18.0949 16.3278 18.0891 16.3636L18.0352 16.3991H16.3618ZM17.4162 16.2094C17.5647 16.2094 17.5823 16.1325 17.5823 16.0609C17.5823 15.7596 17.3978 15.5167 17.0639 15.5167C16.7009 15.5167 16.4507 15.7828 16.3792 16.2094H17.4162Z" fill="#1B1A19"/>
<path fill-rule="evenodd" clip-rule="evenodd" d="M18.2319 17.8798H18.3931C18.5592 17.8798 18.6783 17.8798 18.6783 17.6837V16.0199C18.6783 15.8367 18.4583 15.8006 18.3686 15.753V15.6647C18.8034 15.4809 19.0418 15.3267 19.0963 15.3267C19.1312 15.3267 19.1491 15.3445 19.1491 15.4041V15.937H19.1617C19.3102 15.706 19.5607 15.3267 19.9237 15.3267C20.0728 15.3267 20.2631 15.4273 20.2631 15.6406C20.2631 15.8006 20.1503 15.9433 19.9837 15.9433C19.7986 15.9433 19.7986 15.8006 19.5899 15.8006C19.4887 15.8006 19.1551 15.937 19.1551 16.2928V17.6837C19.1551 17.8798 19.2742 17.8798 19.4408 17.8798H19.7744V18.0335C19.4466 18.0274 19.1975 18.022 18.9409 18.022C18.6967 18.022 18.4464 18.0274 18.2319 18.0335V17.8798Z" fill="#1B1A19"/>
<path fill-rule="evenodd" clip-rule="evenodd" d="M20.5247 17.2099C20.6026 17.6009 20.8404 17.9331 21.2758 17.9331C21.6269 17.9331 21.7578 17.7196 21.7578 17.5126C21.7578 16.8131 20.4596 17.0384 20.4596 16.0852C20.4596 15.753 20.7277 15.327 21.383 15.327C21.5733 15.327 21.8293 15.3806 22.0614 15.499L22.1032 16.1024H21.9663C21.9069 15.7298 21.6987 15.5167 21.317 15.5167C21.0786 15.5167 20.8528 15.6526 20.8528 15.9075C20.8528 16.6007 22.2341 16.3871 22.2341 17.3171C22.2341 17.7075 21.919 18.1226 21.2098 18.1226C20.9719 18.1226 20.6914 18.0395 20.4835 17.9211L20.4175 17.2399L20.5247 17.2099Z" fill="#1B1A19"/>
<path fill-rule="evenodd" clip-rule="evenodd" d="M27.6128 14.9715H27.4643C27.351 14.2792 26.8565 14.0005 26.1899 14.0005C25.5041 14.0005 24.5096 14.4561 24.5096 15.8774C24.5096 17.074 25.3677 17.9331 26.2848 17.9331C26.8738 17.9331 27.3633 17.5301 27.4824 16.908L27.6193 16.9435L27.4824 17.8084C27.2322 17.9624 26.5589 18.1226 26.1652 18.1226C24.772 18.1226 23.8906 17.2282 23.8906 15.8957C23.8906 14.6811 24.9807 13.8105 26.1481 13.8105C26.6302 13.8105 27.0946 13.965 27.5533 14.125L27.6128 14.9715Z" fill="#1B1A19"/>
<path fill-rule="evenodd" clip-rule="evenodd" d="M27.8276 17.8798H27.9404C28.1076 17.8798 28.2267 17.8798 28.2267 17.6838V14.3855C28.2267 14.0005 28.1373 13.9885 27.9107 13.9234V13.8286C28.1488 13.7517 28.3994 13.6454 28.5248 13.5737C28.5894 13.5387 28.6375 13.5084 28.6551 13.5084C28.6914 13.5084 28.703 13.5445 28.703 13.592V17.6838C28.703 17.8798 28.8344 17.8798 29.0008 17.8798H29.1017V18.0335C28.8999 18.0335 28.6914 18.022 28.4769 18.022C28.2624 18.022 28.0485 18.0275 27.8276 18.0335V17.8798Z" fill="#1B1A19"/>
<path fill-rule="evenodd" clip-rule="evenodd" d="M31.6521 17.7075C31.6521 17.8145 31.717 17.8202 31.8182 17.8202C31.8899 17.8202 31.9788 17.8145 32.0569 17.8145V17.9391C31.8006 17.9627 31.3119 18.0871 31.1986 18.1226L31.1689 18.1046V17.625C30.8119 17.9148 30.5375 18.1226 30.114 18.1226C29.7925 18.1226 29.4592 17.9148 29.4592 17.418V15.9015C29.4592 15.7473 29.4356 15.5993 29.1025 15.5698V15.4572C29.317 15.4514 29.7925 15.4161 29.8703 15.4161C29.9363 15.4161 29.9363 15.4572 29.9363 15.5879V17.1156C29.9363 17.2933 29.9363 17.8022 30.4544 17.8022C30.6566 17.8022 30.9247 17.6488 31.1747 17.4418V15.8482C31.1747 15.7298 30.8889 15.6647 30.6747 15.6056V15.499C31.2104 15.4632 31.5443 15.4161 31.6039 15.4161C31.6521 15.4161 31.6521 15.4572 31.6521 15.5225V17.7075Z" fill="#1B1A19"/>
<path fill-rule="evenodd" clip-rule="evenodd" d="M32.8367 15.753C33.0749 15.5523 33.3969 15.3267 33.7244 15.3267C34.4152 15.3267 34.8324 15.9255 34.8324 16.5709C34.8324 17.3463 34.2604 18.1226 33.4082 18.1226C32.9679 18.1226 32.7355 17.9802 32.5804 17.9148L32.4022 18.051L32.2774 17.9862C32.3304 17.637 32.3607 17.2933 32.3607 16.9321V14.3855C32.3607 14.0005 32.271 13.9885 32.0444 13.9234V13.8286C32.2831 13.7517 32.5331 13.6454 32.658 13.5737C32.7237 13.5387 32.7713 13.5084 32.7894 13.5084C32.8249 13.5084 32.8367 13.5445 32.8367 13.592V15.753ZM32.8367 17.3641C32.8367 17.5891 33.0512 17.9684 33.4502 17.9684C34.0876 17.9684 34.3555 17.3463 34.3555 16.8191C34.3555 16.1798 33.8676 15.6466 33.4032 15.6466C33.1818 15.6466 32.9975 15.7891 32.8367 15.9255V17.3641Z" fill="#1B1A19"/>
<path fill-rule="evenodd" clip-rule="evenodd" d="M33.8646 21.2578C33.8646 21.3877 33.9548 21.4255 34.0587 21.4391C34.1913 21.4487 34.3373 21.4487 34.4869 21.4323C34.6228 21.4162 34.7396 21.3391 34.7977 21.2578C34.8494 21.1873 34.8785 21.0971 34.8983 21.0262H34.9921C34.9563 21.2097 34.911 21.3905 34.8722 21.5739C34.5876 21.5739 34.3016 21.5614 34.0167 21.5614C33.7312 21.5614 33.446 21.5739 33.1611 21.5739V21.4774H33.206C33.3228 21.4774 33.4499 21.4613 33.4499 21.2617V19.6052C33.4499 19.4373 33.3228 19.4212 33.206 19.4212H33.1611V19.3246C33.3325 19.3246 33.5013 19.3375 33.6729 19.3375C33.8385 19.3375 34.0004 19.3246 34.166 19.3246V19.4212H34.0846C33.9614 19.4212 33.8646 19.4247 33.8646 19.5953V21.2578Z" fill="#1B1A19"/>
<path fill-rule="evenodd" clip-rule="evenodd" d="M7.14038 21.4774H7.18576C7.30236 21.4774 7.42556 21.4613 7.42556 21.2937V19.6052C7.42556 19.4373 7.30236 19.4214 7.18576 19.4214H7.14038V19.3246C7.26661 19.3246 7.46103 19.3375 7.62026 19.3375C7.78223 19.3375 7.97638 19.3246 8.12901 19.3246V19.4214H8.08308C7.96703 19.4214 7.84356 19.4373 7.84356 19.6052V21.2937C7.84356 21.4613 7.96703 21.4774 8.08308 21.4774H8.12901V21.5739C7.97336 21.5739 7.77838 21.5614 7.61696 21.5614C7.45801 21.5614 7.26661 21.5739 7.14038 21.5739V21.4774Z" fill="#1B1A19"/>
<path fill-rule="evenodd" clip-rule="evenodd" d="M10.3557 20.939L10.3623 20.9325V19.7244C10.3623 19.46 10.1772 19.4212 10.0802 19.4212H10.0087V19.3246C10.1613 19.3246 10.3103 19.3375 10.4624 19.3375C10.5952 19.3375 10.7289 19.3246 10.8612 19.3246V19.4212H10.813C10.6764 19.4212 10.524 19.4469 10.524 19.8305V21.297C10.524 21.4099 10.5273 21.5225 10.543 21.6223H10.4201L8.75108 19.7723V21.1003C8.75108 21.3809 8.8058 21.4774 9.0555 21.4774H9.11078V21.5739C8.97135 21.5739 8.8322 21.5614 8.69278 21.5614C8.5473 21.5614 8.39798 21.5739 8.25195 21.5739V21.4774H8.29733C8.5209 21.4774 8.5891 21.3257 8.5891 21.0686V19.711C8.5891 19.5308 8.4395 19.4212 8.2943 19.4212H8.25195V19.3246C8.37488 19.3246 8.50165 19.3375 8.6243 19.3375C8.72193 19.3375 8.81598 19.3246 8.91305 19.3246L10.3557 20.939Z" fill="#1B1A19"/>
<path fill-rule="evenodd" clip-rule="evenodd" d="M11.3465 19.4857C11.1029 19.4857 11.0938 19.5439 11.0451 19.7788H10.9478C10.9604 19.6889 10.9766 19.5986 10.9868 19.5051C10.9997 19.4146 11.0061 19.3246 11.0061 19.2314H11.0839C11.11 19.3279 11.1909 19.3246 11.2789 19.3246H12.9506C13.0386 19.3246 13.1194 19.3214 13.126 19.2246L13.2033 19.2377C13.1909 19.3246 13.1775 19.4116 13.1681 19.4988C13.1618 19.5858 13.1618 19.6725 13.1618 19.7594L13.0642 19.7952C13.0576 19.6763 13.0416 19.4857 12.8246 19.4857H12.2931V21.2001C12.2931 21.4487 12.4066 21.4774 12.562 21.4774H12.6236V21.5739C12.4974 21.5739 12.2702 21.5614 12.0956 21.5614C11.9009 21.5614 11.6738 21.5739 11.5473 21.5739V21.4774H11.6091C11.7876 21.4774 11.8781 21.4613 11.8781 21.2067V19.4857H11.3465Z" fill="#1B1A19"/>
<path fill-rule="evenodd" clip-rule="evenodd" d="M12.6237 21.5879C12.4961 21.5879 12.2695 21.575 12.0955 21.575C11.901 21.575 11.6744 21.5879 11.5471 21.5879H11.5334V21.4632H11.609C11.7875 21.4591 11.8592 21.4569 11.8636 21.2067V19.4994H11.3464V19.4715H11.8917V21.2067C11.8917 21.4657 11.7866 21.4916 11.609 21.4919H11.5609V21.56C11.6887 21.5592 11.9071 21.5474 12.0955 21.5474C12.2643 21.5474 12.4805 21.5592 12.6092 21.56V21.4919H12.5619C12.4048 21.4916 12.2789 21.4534 12.2789 21.2002V19.4715H12.8245C13.0417 19.4723 13.0706 19.6561 13.0775 19.7758L13.1476 19.7498C13.1476 19.6659 13.1479 19.5817 13.1537 19.4969C13.1633 19.4138 13.1751 19.3318 13.1872 19.2492L13.138 19.241C13.1229 19.3348 13.0316 19.3397 12.9502 19.3386H11.2619C11.1855 19.3386 11.1024 19.335 11.0733 19.2451H11.0199C11.0191 19.3342 11.0131 19.4206 11.0007 19.5068C10.9911 19.5951 10.9765 19.6804 10.9647 19.7654H11.0337C11.0763 19.5409 11.1041 19.4679 11.3464 19.4715V19.4994C11.1063 19.5043 11.1115 19.5439 11.0587 19.7824L11.0562 19.7933H10.9314L10.9333 19.7764C10.9465 19.6867 10.9627 19.5962 10.9721 19.5024C10.9858 19.4132 10.9919 19.3238 10.9919 19.2314V19.2172H11.0947L11.0972 19.227C11.1192 19.3085 11.1792 19.3091 11.2619 19.3104H12.9502C13.0404 19.3091 13.1064 19.3077 13.1119 19.2237L13.113 19.2082L13.1275 19.2114L13.2191 19.2257L13.2169 19.2399C13.204 19.3266 13.1913 19.4132 13.1817 19.4994C13.1757 19.5858 13.1757 19.6725 13.1757 19.7594V19.7695L13.166 19.7728L13.0514 19.8149L13.0505 19.7961C13.0417 19.6749 13.0291 19.4994 12.8245 19.4994H12.3069V21.2002C12.3102 21.4432 12.4073 21.4602 12.5619 21.4632H12.6375V21.5879H12.6237Z" fill="#1B1A19"/>
<path fill-rule="evenodd" clip-rule="evenodd" d="M13.3071 21.4774H13.3528C13.4691 21.4774 13.5926 21.4613 13.5926 21.2937V19.6052C13.5926 19.4373 13.4691 19.4214 13.3528 19.4214H13.3071V19.3246C13.504 19.3246 13.842 19.3375 14.1137 19.3375C14.3865 19.3375 14.7231 19.3246 14.9434 19.3246C14.9379 19.463 14.9406 19.6763 14.9503 19.8177L14.8526 19.8434C14.8372 19.6339 14.7982 19.4668 14.4577 19.4668H14.0076V20.3104H14.3926C14.5873 20.3104 14.6296 20.2016 14.6489 20.0271H14.7459C14.7396 20.1532 14.736 20.2787 14.736 20.4042C14.736 20.527 14.7396 20.6492 14.7459 20.7717L14.6489 20.7908C14.6296 20.5978 14.62 20.472 14.3961 20.472H14.0076V21.2226C14.0076 21.4323 14.1951 21.4323 14.4025 21.4323C14.7916 21.4323 14.9632 21.4063 15.0605 21.0394L15.151 21.0615C15.1087 21.2327 15.0702 21.403 15.0413 21.5739C14.8334 21.5739 14.4608 21.5614 14.1695 21.5614C13.8772 21.5614 13.4919 21.5739 13.3071 21.5739V21.4774Z" fill="#1B1A19"/>
<path fill-rule="evenodd" clip-rule="evenodd" d="M15.5886 19.6659C15.5886 19.4307 15.4585 19.4212 15.3581 19.4212H15.2996V19.3246C15.4032 19.3246 15.6043 19.3375 15.802 19.3375C15.9961 19.3375 16.1521 19.3246 16.3237 19.3246C16.7315 19.3246 17.0953 19.434 17.0953 19.892C17.0953 20.1816 16.9006 20.3588 16.6449 20.4591L17.1987 21.2838C17.2897 21.42 17.3541 21.4583 17.5133 21.4774V21.5739C17.4061 21.5739 17.3024 21.5614 17.1957 21.5614C17.0953 21.5614 16.9911 21.5739 16.8913 21.5739C16.6416 21.2488 16.4273 20.9007 16.217 20.5297H16.0033V21.2196C16.0033 21.4678 16.1196 21.4774 16.2681 21.4774H16.327V21.5739C16.1419 21.5739 15.9546 21.5614 15.7695 21.5614C15.6139 21.5614 15.4615 21.5739 15.2996 21.5739V21.4774H15.3581C15.4786 21.4774 15.5886 21.4227 15.5886 21.3035V19.6659ZM16.0034 20.4132H16.1615C16.4863 20.4132 16.6609 20.2912 16.6609 19.9106C16.6609 19.6241 16.4761 19.4403 16.1874 19.4403C16.09 19.4403 16.0485 19.4504 16.0034 19.4534V20.4132Z" fill="#1B1A19"/>
<path fill-rule="evenodd" clip-rule="evenodd" d="M19.7138 20.939L19.7196 20.9325V19.7244C19.7196 19.46 19.5354 19.4212 19.438 19.4212H19.3671V19.3246C19.5194 19.3246 19.6679 19.3375 19.8208 19.3375C19.9539 19.3375 20.0859 19.3246 20.2196 19.3246V19.4212H20.1709C20.0348 19.4212 19.8824 19.4469 19.8824 19.8305V21.297C19.8824 21.4099 19.8857 21.5225 19.9017 21.6223H19.779L18.11 19.7723V21.1003C18.11 21.3809 18.1648 21.4774 18.4142 21.4774H18.4695V21.5739C18.3303 21.5739 18.1906 21.5614 18.0515 21.5614C17.9049 21.5614 17.7561 21.5739 17.6104 21.5739V21.4774H17.6555C17.8793 21.4774 17.9478 21.3257 17.9478 21.0686V19.711C17.9478 19.5308 17.7985 19.4212 17.6527 19.4212H17.6104V19.3246C17.733 19.3246 17.8603 19.3375 17.9835 19.3375C18.0798 19.3375 18.1741 19.3246 18.2715 19.3246L19.7138 20.939Z" fill="#1B1A19"/>
<path fill-rule="evenodd" clip-rule="evenodd" d="M20.7404 21.1135C20.7077 21.2226 20.6687 21.3071 20.6687 21.3645C20.6687 21.4613 20.8053 21.4774 20.9118 21.4774H20.9481V21.5739C20.818 21.5671 20.6857 21.5614 20.5554 21.5614C20.4385 21.5614 20.3224 21.5671 20.2056 21.5739V21.4774H20.2251C20.3513 21.4774 20.4586 21.403 20.5067 21.2674L21.0253 19.7889C21.0677 19.6692 21.126 19.5084 21.1458 19.3889C21.2489 19.3536 21.379 19.2896 21.4403 19.2503L21.4664 19.2437L21.4893 19.2538C21.4989 19.2795 21.5082 19.3085 21.5181 19.3342L22.1149 21.0199C22.1537 21.1323 22.1924 21.2515 22.2337 21.3486C22.2733 21.4391 22.3415 21.4774 22.4487 21.4774H22.4683V21.5739C22.322 21.5671 22.1759 21.5614 22.0211 21.5614C21.8622 21.5614 21.6996 21.5671 21.5344 21.5739V21.4774H21.5701C21.6441 21.4774 21.7714 21.4646 21.7714 21.3839C21.7714 21.3423 21.742 21.2551 21.706 21.1515L21.5797 20.778H20.8438L20.7404 21.1135ZM21.2139 19.6856H21.207L20.9059 20.5978H21.5114L21.2139 19.6856Z" fill="#1B1A19"/>
<path fill-rule="evenodd" clip-rule="evenodd" d="M22.6105 19.4857C22.3674 19.4857 22.3577 19.5439 22.3088 19.7788H22.2114C22.2241 19.6889 22.2406 19.5986 22.2508 19.5051C22.2634 19.4146 22.2697 19.3246 22.2697 19.2314H22.3481C22.3734 19.3279 22.4548 19.3246 22.5423 19.3246H24.2148C24.302 19.3246 24.3828 19.3214 24.3892 19.2246L24.467 19.2377C24.4546 19.3246 24.442 19.4116 24.4318 19.4988C24.4246 19.5858 24.4246 19.6725 24.4246 19.7594L24.3278 19.7952C24.3221 19.6763 24.3056 19.4857 24.088 19.4857H23.5567V21.2001C23.5567 21.4487 23.6703 21.4774 23.8254 21.4774H23.8876V21.5739C23.7611 21.5739 23.5345 21.5614 23.359 21.5614C23.1649 21.5614 22.9374 21.5739 22.8112 21.5739V21.4774H22.8728C23.0516 21.4774 23.1418 21.4613 23.1418 21.2067V19.4857H22.6105Z" fill="#1B1A19"/>
<path fill-rule="evenodd" clip-rule="evenodd" d="M24.5869 21.4774H24.6323C24.7492 21.4774 24.8715 21.4613 24.8715 21.2937V19.6052C24.8715 19.4373 24.7492 19.4214 24.6323 19.4214H24.5869V19.3246C24.7134 19.3246 24.9073 19.3375 25.066 19.3375C25.2285 19.3375 25.4229 19.3246 25.5755 19.3246V19.4214H25.5302C25.413 19.4214 25.2898 19.4373 25.2898 19.6052V21.2937C25.2898 21.4613 25.413 21.4774 25.5302 21.4774H25.5755V21.5739C25.4199 21.5739 25.2252 21.5614 25.0635 21.5614C24.9043 21.5614 24.7134 21.5739 24.5869 21.5739V21.4774Z" fill="#1B1A19"/>
<path fill-rule="evenodd" clip-rule="evenodd" d="M26.8678 19.2762C27.5589 19.2762 28.1094 19.7023 28.1094 20.3883C28.1094 21.1296 27.5748 21.6223 26.8846 21.6223C26.1973 21.6223 25.6724 21.1583 25.6724 20.4654C25.6724 19.7952 26.194 19.2762 26.8678 19.2762ZM26.9168 21.4804C27.5458 21.4804 27.6555 20.9292 27.6555 20.4591C27.6555 19.9883 27.4003 19.4179 26.8618 19.4179C26.2948 19.4179 26.1262 19.9207 26.1262 20.3522C26.1262 20.9292 26.3921 21.4804 26.9168 21.4804Z" fill="#1B1A19"/>
<path fill-rule="evenodd" clip-rule="evenodd" d="M30.2934 20.939L30.3003 20.9325V19.7244C30.3003 19.46 30.1149 19.4212 30.0179 19.4212H29.9472V19.3246C30.099 19.3246 30.2486 19.3375 30.4001 19.3375C30.5335 19.3375 30.6663 19.3246 30.7994 19.3246V19.4212H30.7507C30.6149 19.4212 30.462 19.4469 30.462 19.8305V21.297C30.462 21.4099 30.4653 21.5225 30.4818 21.6223H30.3583L28.6891 19.7723V21.1003C28.6891 21.3809 28.7443 21.4774 28.9935 21.4774H29.049V21.5739C28.9096 21.5739 28.7705 21.5614 28.631 21.5614C28.485 21.5614 28.336 21.5739 28.1899 21.5739V21.4774H28.2356C28.4594 21.4774 28.5271 21.3257 28.5271 21.0686V19.711C28.5271 19.5308 28.3786 19.4212 28.232 19.4212H28.1899V19.3246C28.3131 19.3246 28.4394 19.3375 28.5628 19.3375C28.6599 19.3375 28.7534 19.3246 28.851 19.3246L30.2934 20.939Z" fill="#1B1A19"/>
<path fill-rule="evenodd" clip-rule="evenodd" d="M30.4819 21.636L30.3479 21.6314L28.7029 19.8089V21.1003C28.707 21.3809 28.7496 21.4596 28.993 21.4627H29.0631V21.5879H29.0491C28.9089 21.5879 28.7697 21.5748 28.6311 21.5748C28.4859 21.5748 28.3366 21.5879 28.1897 21.5879H28.1763V21.4627H28.2354C28.4491 21.4621 28.5107 21.3251 28.5131 21.0686V19.711C28.5131 19.539 28.3715 19.4354 28.2321 19.4354H28.1763V19.3104H28.1897C28.314 19.3104 28.4403 19.3233 28.5629 19.3233C28.6589 19.3233 28.7521 19.3104 28.8621 19.3153L30.2861 20.9098V19.7244C30.285 19.4685 30.1123 19.4373 30.0179 19.4354H29.9324V19.3104H29.9473C30.0996 19.3104 30.2489 19.3233 30.3999 19.3233C30.5325 19.3233 30.6647 19.3104 30.7998 19.3104H30.8132V19.4354H30.7505C30.6169 19.4389 30.4791 19.451 30.4764 19.8305V21.2969C30.4764 21.4096 30.4791 21.522 30.4948 21.6202L30.4975 21.636H30.4819ZM30.3584 21.6078H30.4648C30.451 21.5111 30.448 21.4039 30.448 21.297V19.8305C30.448 19.443 30.6114 19.4078 30.7505 19.407H30.7857V19.3383C30.657 19.3394 30.5297 19.3509 30.3999 19.3509C30.2525 19.3509 30.1076 19.3394 29.9607 19.3383V19.407H30.0179C30.1177 19.4078 30.3135 19.4518 30.3135 19.7244L30.3102 20.9426L30.3039 20.9489L30.2935 20.9595L28.8511 19.3383C28.7551 19.3383 28.6608 19.3509 28.5629 19.3509C28.4433 19.3509 28.3217 19.3394 28.2037 19.3383V19.407H28.2321C28.3844 19.4078 28.5412 19.5221 28.5412 19.711V21.0686C28.5412 21.3265 28.4686 21.4911 28.2354 21.4919L28.2037 21.4916V21.56C28.3443 21.5592 28.4886 21.5474 28.6311 21.5474C28.7664 21.5474 28.9006 21.5592 29.0351 21.56V21.4919H28.993C28.7386 21.4916 28.6751 21.3809 28.6751 21.1003V19.7364L30.3584 21.6078Z" fill="#1B1A19"/>
<path fill-rule="evenodd" clip-rule="evenodd" d="M31.3199 21.1135C31.2883 21.2226 31.249 21.3071 31.249 21.3645C31.249 21.4613 31.3856 21.4774 31.4918 21.4774H31.5281V21.5739C31.3983 21.5671 31.2652 21.5614 31.1354 21.5614C31.0188 21.5614 30.9025 21.5671 30.7861 21.5739V21.4774H30.8046C30.9313 21.4774 31.0389 21.403 31.0862 21.2674L31.6059 19.7889C31.6477 19.6692 31.7063 19.5084 31.725 19.3889C31.8292 19.3536 31.9585 19.2896 32.0209 19.2503L32.0467 19.2437L32.0687 19.2538C32.0786 19.2795 32.0883 19.3085 32.0982 19.3342L32.6944 21.0199C32.7331 21.1323 32.7722 21.2515 32.8145 21.3486C32.8533 21.4391 32.9215 21.4774 33.0282 21.4774H33.0483V21.5739C32.9023 21.5671 32.7562 21.5614 32.6006 21.5614C32.4422 21.5614 32.2797 21.5671 32.1141 21.5739V21.4774H32.1501C32.2241 21.4774 32.3514 21.4646 32.3514 21.3839C32.3514 21.3423 32.3223 21.2551 32.286 21.1515L32.1598 20.778H31.4241L31.3199 21.1135ZM31.7942 19.6856H31.7876L31.4854 20.5978H32.0923L31.7942 19.6856Z" fill="#1B1A19"/>
<path fill-rule="evenodd" clip-rule="evenodd" d="M35.361 19.2333C35.7905 19.2333 36.1113 19.5634 36.1113 19.9848C36.1113 20.4068 35.7905 20.7333 35.361 20.7333C34.9327 20.7333 34.6113 20.4068 34.6113 19.9848C34.6113 19.5634 34.9327 19.2333 35.361 19.2333ZM35.3612 20.5936C35.6977 20.5936 35.9544 20.3077 35.9544 19.9848C35.9544 19.662 35.7007 19.3736 35.3612 19.3736C35.0235 19.3736 34.7673 19.662 34.7673 19.9848C34.7673 20.3077 35.0235 20.5936 35.3612 20.5936ZM34.9882 20.3802V20.3446C35.08 20.3313 35.0969 20.3337 35.0969 20.2775V19.7212C35.0969 19.6426 35.089 19.6154 34.9912 19.6203V19.5822H35.3748C35.5065 19.5822 35.6285 19.645 35.6285 19.7817C35.6285 19.8929 35.5548 19.9758 35.4509 20.0078L35.5747 20.1795C35.6315 20.2575 35.6974 20.3313 35.7391 20.3567V20.3802H35.5935C35.5234 20.3802 35.4618 20.2333 35.324 20.0356H35.2407V20.2847C35.2407 20.3337 35.2582 20.3313 35.35 20.3446V20.3802H34.9882ZM35.2407 19.9848H35.3295C35.4261 19.9848 35.4708 19.9123 35.4708 19.7932C35.4708 19.674 35.402 19.6323 35.3247 19.6323H35.2407V19.9848Z" fill="#1B1A19"/>
<path fill-rule="evenodd" clip-rule="evenodd" d="M14.7095 7.94773C14.7095 4.93335 17.1671 2.48964 20.1985 2.48964C23.2301 2.48964 25.6875 4.93335 25.6875 7.94773C25.6875 10.9618 23.2301 13.4055 20.1985 13.4055C17.1671 13.4055 14.7095 10.9618 14.7095 7.94773Z" fill="#FFFFFE"/>
<path fill-rule="evenodd" clip-rule="evenodd" d="M23.5184 7.84C23.5165 6.44246 22.6376 5.25027 21.3995 4.77832V10.9017C22.6376 10.4289 23.5165 9.23809 23.5184 7.84ZM19.0375 10.9006V4.77885C17.8006 5.25244 16.9233 6.44271 16.92 7.83998C16.9233 9.23697 17.8006 10.4272 19.0375 10.9006ZM20.2192 2.66437C17.3446 2.66546 15.0157 4.98175 15.0154 7.83999C15.0157 10.698 17.3446 13.014 20.2192 13.0145C23.0941 13.014 25.4233 10.698 25.4241 7.83999C25.4233 4.98175 23.0941 2.66546 20.2192 2.66437ZM20.2065 13.5029C17.0608 13.5176 14.4717 10.9837 14.4717 7.89904C14.4717 4.52811 17.0608 2.19623 20.2065 2.19705H21.6805C24.7891 2.19623 27.626 4.52701 27.626 7.89904C27.626 10.9826 24.7891 13.5029 21.6805 13.5029H20.2065Z" fill="#174A77"/>
</svg>
