<svg width="81" height="80" viewBox="0 0 81 80" fill="none" xmlns="http://www.w3.org/2000/svg">
<g id="Temporary_Illustration / Success / On Light / Large">
<path id="Combined Shape" fill-rule="evenodd" clip-rule="evenodd" d="M0.5 40C0.5 17.92 18.42 0 40.5 0C62.58 0 80.5 17.92 80.5 40C80.5 62.08 62.58 80 40.5 80C18.42 80 0.5 62.08 0.5 40ZM56.3651 26.2576C55.955 25.8876 55.3227 25.92 54.9527 26.3301L33.527 50.074L25.2108 41.6719L25.117 41.5882C24.7263 41.2811 24.1589 41.3059 23.7966 41.6645C23.404 42.053 23.4007 42.6862 23.7892 43.0787L33.5941 52.9855L56.4376 27.6699L56.5158 27.5716C56.8003 27.1642 56.7436 26.5991 56.3651 26.2576Z" fill="#228471"/>
</g>
</svg>
