<svg width="20" height="20" viewBox="0 0 20 20" fill="none" xmlns="http://www.w3.org/2000/svg">
<path fill-rule="evenodd" clip-rule="evenodd" d="M10.0011 1.66667C5.40106 1.66667 1.66772 5.40001 1.66772 10C1.66772 14.6 5.40106 18.3333 10.0011 18.3333C14.6011 18.3333 18.3344 14.6 18.3344 10C18.3344 5.40001 14.6011 1.66667 10.0011 1.66667ZM10.8344 14.1667H9.16773V12.5H10.8344V14.1667ZM10.8344 10.8333H9.16773V5.83334H10.8344V10.8333Z" fill="#B00020"/>
<mask id="mask0_764_27534" style="mask-type:alpha" maskUnits="userSpaceOnUse" x="1" y="1" width="18" height="18">
<path fill-rule="evenodd" clip-rule="evenodd" d="M10.0011 1.66667C5.40106 1.66667 1.66772 5.40001 1.66772 10C1.66772 14.6 5.40106 18.3333 10.0011 18.3333C14.6011 18.3333 18.3344 14.6 18.3344 10C18.3344 5.40001 14.6011 1.66667 10.0011 1.66667ZM10.8344 14.1667H9.16773V12.5H10.8344V14.1667ZM10.8344 10.8333H9.16773V5.83334H10.8344V10.8333Z" fill="white"/>
</mask>
<g mask="url(#mask0_764_27534)">
</g>
</svg>
