<svg width="42" height="24" viewBox="0 0 42 24" fill="none" xmlns="http://www.w3.org/2000/svg">
<path fill-rule="evenodd" clip-rule="evenodd" d="M9.18494 0V24H33.1849V20.1971H30.2895L28.7988 18.5488L27.3006 20.1971H17.7542V12.5149H14.6731L18.4949 3.86568H22.1807L23.4964 6.82877V3.86568H28.0588L28.8509 6.0985L29.6482 3.86568H33.1849V0H9.18494ZM30.3639 4.82758L28.8574 9.01092L27.3606 4.82758H24.4917V11.5441H26.3051V6.84252L28.0323 11.5441H29.6442L31.3713 6.83282V11.5441H33.1848V4.82758H30.3639ZM19.1664 4.82758L16.2014 11.5441H18.2164L18.773 10.2008H21.8625L22.4286 11.5441H24.4915L21.5268 4.82758H19.1664ZM20.3178 6.49704L21.2294 8.69429H19.4061L20.3178 6.49704ZM30.8156 12.5187L28.8487 14.6681L26.9007 12.5187H24.4924L27.6588 15.8771L24.4924 19.2353H26.8337L28.8102 17.0668L30.7773 19.2353H33.1849L30 15.8578L33.1849 12.5187H30.8156ZM18.7737 12.5187V19.2353H24.4922V17.6809H20.6064V16.635H24.3963V15.1189H20.6064V14.0732H24.4922V12.5187H18.7737ZM31.3406 15.8606L33.1849 17.8228V13.9148L31.3406 15.8606Z" fill="white"/>
<path fill-rule="evenodd" clip-rule="evenodd" d="M6.83386 22.8722V22.4749H7.07007C7.23965 22.4749 7.3369 22.5277 7.3369 22.6694C7.3369 22.8194 7.23965 22.8722 7.07285 22.8722H6.83386ZM6.6698 23.4972H6.83382V23.0027H7.07838L7.34242 23.4972H7.52026L7.24234 22.9832C7.39801 22.9444 7.50082 22.8472 7.50082 22.6611C7.50082 22.4444 7.34794 22.3277 7.08116 22.3277H6.6698V23.4972ZM7.06433 23.8722C6.54459 23.8722 6.13879 23.4528 6.13879 22.9305C6.13879 22.4111 6.5418 21.9944 7.06155 21.9944C7.57846 21.9944 7.98425 22.4139 7.98425 22.9361C7.98425 23.4555 7.58124 23.8722 7.06433 23.8722ZM7.06171 24C7.6537 24 8.12338 23.5249 8.12338 22.9305C8.12338 22.3388 7.65648 21.8666 7.0645 21.8666C6.46694 21.8666 6 22.3416 6 22.9361C6 23.5277 6.46416 24 7.06171 24Z" fill="#006FCF"/>
<path fill-rule="evenodd" clip-rule="evenodd" d="M6.83386 22.8722V22.4749H7.07007C7.23965 22.4749 7.3369 22.5277 7.3369 22.6694C7.3369 22.8194 7.23965 22.8722 7.07285 22.8722H6.83386ZM6.6698 23.4972H6.83382V23.0027H7.07838L7.34242 23.4972H7.52026L7.24234 22.9832C7.39801 22.9444 7.50082 22.8472 7.50082 22.6611C7.50082 22.4444 7.34794 22.3277 7.08116 22.3277H6.6698V23.4972ZM7.06433 23.8722C6.54459 23.8722 6.13879 23.4528 6.13879 22.9305C6.13879 22.4111 6.5418 21.9944 7.06155 21.9944C7.57846 21.9944 7.98425 22.4139 7.98425 22.9361C7.98425 23.4555 7.58124 23.8722 7.06433 23.8722ZM7.06171 24C7.6537 24 8.12338 23.5249 8.12338 22.9305C8.12338 22.3388 7.65648 21.8666 7.0645 21.8666C6.46694 21.8666 6 22.3416 6 22.9361C6 23.5277 6.46416 24 7.06171 24Z" fill="white"/>
</svg>
