<svg width="42" height="24" viewBox="0 0 42 24" fill="none" xmlns="http://www.w3.org/2000/svg">
<path fill-rule="evenodd" clip-rule="evenodd" d="M9.18506 -3.05176e-05V24H33.185V20.1971H30.2896L28.7989 18.5488L27.3007 20.1971H17.7544V12.5149H14.6732L18.495 3.86565H22.1808L23.4965 6.82874V3.86565H28.0589L28.851 6.09846L29.6484 3.86565H33.185V-3.05176e-05H9.18506ZM30.364 4.82753L28.8575 9.01087L27.3607 4.82753H24.4918V11.5441H26.3052V6.84247L28.0324 11.5441H29.6443L31.3715 6.83278V11.5441H33.185V4.82753H30.364ZM19.1665 4.82753L16.2015 11.5441H18.2165L18.7731 10.2007H21.8626L22.4287 11.5441H24.4917L21.5269 4.82753H19.1665ZM20.3179 6.49702L21.2295 8.69426H19.4062L20.3179 6.49702ZM30.8157 12.5187L28.8488 14.6681L26.9008 12.5187H24.4926L27.6589 15.877L24.4926 19.2353H26.8338L28.8103 17.0668L30.7774 19.2353H33.1851L30.0002 15.8578L33.1851 12.5187H30.8157ZM18.7738 12.5187V19.2353H24.4923V17.6809H20.6065V16.635H24.3964V15.1189H20.6065V14.0732H24.4923V12.5187H18.7738ZM31.3407 15.8606L33.1851 17.8228V13.9148L31.3407 15.8606Z" fill="#006FCF"/>
<mask id="mask0_109_65024" style="mask-type:alpha" maskUnits="userSpaceOnUse" x="6" y="21" width="3" height="3">
<path fill-rule="evenodd" clip-rule="evenodd" d="M6 21.8667H8.12336V24H6V21.8667Z" fill="white"/>
</mask>
<g mask="url(#mask0_109_65024)">
<path fill-rule="evenodd" clip-rule="evenodd" d="M6.83386 22.8722V22.475H7.07007C7.23965 22.475 7.3369 22.5278 7.3369 22.6694C7.3369 22.8194 7.23965 22.8722 7.07285 22.8722H6.83386ZM6.6698 23.4972H6.83382V23.0028H7.07838L7.34242 23.4972H7.52026L7.24234 22.9833C7.39801 22.9444 7.50082 22.8472 7.50082 22.6611C7.50082 22.4445 7.34794 22.3278 7.08116 22.3278H6.6698V23.4972ZM7.06433 23.8722C6.54459 23.8722 6.13879 23.4528 6.13879 22.9306C6.13879 22.4112 6.5418 21.9945 7.06155 21.9945C7.57846 21.9945 7.98425 22.4139 7.98425 22.9361C7.98425 23.4555 7.58124 23.8722 7.06433 23.8722ZM7.06171 24C7.6537 24 8.12338 23.525 8.12338 22.9306C8.12338 22.3389 7.65648 21.8667 7.0645 21.8667C6.46694 21.8667 6 22.3416 6 22.9361C6 23.5278 6.46416 24 7.06171 24Z" fill="#006FCF"/>
</g>
</svg>
